<svg id="visual" viewBox="0 0 960 540" width="960" height="540" xmlns="http://www.w3.org/2000/svg" xmlns:xlink="http://www.w3.org/1999/xlink" version="1.1"><rect x="0" y="0" width="960" height="540" fill="#ffffff"></rect><path d="M0 193L12.3 186.3C24.7 179.7 49.3 166.3 74 187.3C98.7 208.3 123.3 263.7 148 295C172.7 326.3 197.3 333.7 221.8 334.5C246.3 335.3 270.7 329.7 295.2 308.7C319.7 287.7 344.3 251.3 369 223.8C393.7 196.3 418.3 177.7 443 193.3C467.7 209 492.3 259 517 282.8C541.7 306.7 566.3 304.3 591 279.2C615.7 254 640.3 206 664.8 179.5C689.3 153 713.7 148 738.2 153.7C762.7 159.3 787.3 175.7 812 188.8C836.7 202 861.3 212 886 206.3C910.7 200.7 935.3 179.3 947.7 168.7L960 158L960 0L947.7 0C935.3 0 910.7 0 886 0C861.3 0 836.7 0 812 0C787.3 0 762.7 0 738.2 0C713.7 0 689.3 0 664.8 0C640.3 0 615.7 0 591 0C566.3 0 541.7 0 517 0C492.3 0 467.7 0 443 0C418.3 0 393.7 0 369 0C344.3 0 319.7 0 295.2 0C270.7 0 246.3 0 221.8 0C197.3 0 172.7 0 148 0C123.3 0 98.7 0 74 0C49.3 0 24.7 0 12.3 0L0 0Z" fill="#8b8b8b" stroke-linecap="round" stroke-linejoin="miter"></path></svg>