<svg id="visual" viewBox="0 0 900 450" width="900" height="450" xmlns="http://www.w3.org/2000/svg" xmlns:xlink="http://www.w3.org/1999/xlink" version="1.1"><rect x="0" y="0" width="900" height="450" fill="#ffffff"></rect><path d="M0 255L11.5 246C23 237 46 219 69 221.2C92 223.3 115 245.7 138.2 254.3C161.3 263 184.7 258 207.8 250C231 242 254 231 277 235.2C300 239.3 323 258.7 346 247.8C369 237 392 196 415.2 194.7C438.3 193.3 461.7 231.7 484.8 244.8C508 258 531 246 554 251.2C577 256.3 600 278.7 623 265.7C646 252.7 669 204.3 692.2 205.5C715.3 206.7 738.7 257.3 761.8 258.8C785 260.3 808 212.7 831 193.8C854 175 877 185 888.5 190L900 195L900 451L888.5 451C877 451 854 451 831 451C808 451 785 451 761.8 451C738.7 451 715.3 451 692.2 451C669 451 646 451 623 451C600 451 577 451 554 451C531 451 508 451 484.8 451C461.7 451 438.3 451 415.2 451C392 451 369 451 346 451C323 451 300 451 277 451C254 451 231 451 207.8 451C184.7 451 161.3 451 138.2 451C115 451 92 451 69 451C46 451 23 451 11.5 451L0 451Z" fill="#212529" stroke-linecap="round" stroke-linejoin="miter"></path></svg>